<?xml version="1.0" standalone="no"?>
<!DOCTYPE svg PUBLIC "-//W3C//DTD SVG 20010904//EN"
 "http://www.w3.org/TR/2001/REC-SVG-20010904/DTD/svg10.dtd">
<svg version="1.0" xmlns="http://www.w3.org/2000/svg"
 width="903.000000pt" height="509.000000pt" viewBox="0 0 903.000000 509.000000"
 preserveAspectRatio="xMidYMid meet">

<g transform="translate(0.000000,509.000000) scale(0.100000,-0.100000)"
fill="#000000" stroke="none">
<path d="M3120 4822 c-102 -53 -182 -108 -224 -155 -26 -28 -63 -68 -81 -87
-18 -19 -39 -51 -48 -70 -26 -61 -42 -199 -41 -375 0 -192 12 -246 81 -377 40
-75 170 -218 198 -218 9 0 35 -18 59 -40 24 -22 46 -40 50 -40 4 0 14 -6 21
-12 31 -28 45 -38 93 -68 27 -16 54 -30 61 -30 6 0 23 -7 36 -16 l24 -16 -40
-51 c-21 -29 -45 -58 -51 -66 -26 -31 -135 -257 -130 -270 3 -10 -2 -13 -23
-9 -42 9 -121 -24 -179 -75 -45 -38 -55 -44 -67 -32 -8 7 -106 59 -219 115
-240 119 -274 136 -440 221 -69 35 -145 73 -170 85 -25 11 -88 43 -140 71 -52
28 -133 68 -180 88 -47 20 -93 40 -102 45 -59 33 -192 29 -242 -6 -11 -8 -34
-14 -51 -14 -17 0 -35 -4 -41 -8 -5 -5 -25 -15 -44 -22 -49 -18 -95 -72 -139
-160 -51 -101 -61 -148 -56 -263 l5 -98 46 -57 c26 -31 60 -64 78 -72 58 -29
141 -58 196 -70 30 -7 64 -16 75 -21 11 -5 50 -7 86 -6 53 2 71 -2 87 -16 20
-18 21 -18 37 0 15 18 27 19 121 15 64 -3 109 -1 116 6 8 6 78 10 173 11 88 0
219 5 290 10 277 22 389 33 412 42 13 5 35 9 49 9 22 0 24 -3 18 -27 -4 -16
-13 -42 -20 -60 -14 -34 -28 -37 -169 -48 -33 -3 -107 -12 -165 -20 -58 -8
-143 -20 -190 -25 -47 -6 -107 -15 -135 -20 -140 -27 -236 -40 -289 -40 -32 0
-120 -14 -195 -31 -194 -43 -281 -59 -324 -59 -21 0 -66 -7 -100 -14 -34 -8
-102 -22 -152 -31 -49 -9 -144 -28 -210 -42 -66 -14 -137 -25 -157 -24 -49 2
-82 -28 -158 -141 -71 -107 -116 -250 -135 -433 -2 -22 -7 -53 -11 -69 -5 -20
1 -52 17 -100 22 -63 29 -73 84 -114 33 -24 67 -47 75 -50 8 -3 34 -13 58 -24
23 -10 61 -21 85 -24 23 -3 48 -7 56 -10 66 -22 228 -22 273 0 18 9 64 23 102
31 45 10 88 27 123 50 29 19 56 35 61 35 4 0 24 11 44 25 20 14 45 25 54 25 9
0 36 18 60 40 24 22 49 40 56 40 7 0 27 12 43 26 17 14 44 33 60 41 52 27 125
76 125 84 0 5 19 18 43 30 23 12 46 28 50 35 4 8 16 14 26 14 10 0 26 9 36 20
18 20 161 110 175 110 4 0 15 9 26 21 22 25 228 169 241 169 5 0 24 13 43 29
19 15 49 36 65 45 44 25 131 91 234 179 51 42 97 77 104 77 7 0 23 -18 37 -40
15 -24 36 -43 50 -47 39 -10 114 -45 122 -56 4 -6 10 -34 13 -62 4 -27 18 -77
31 -109 13 -33 24 -64 24 -69 0 -11 44 -111 60 -137 5 -8 19 -35 32 -59 13
-24 29 -46 36 -48 7 -3 22 -24 34 -47 11 -22 30 -50 42 -61 12 -12 40 -49 64
-83 33 -48 42 -70 40 -95 -3 -30 -6 -32 -43 -35 -22 -2 -58 1 -80 6 l-40 8 3
51 c6 82 -40 84 -51 2 -3 -22 -8 -43 -12 -47 -3 -3 -32 -7 -64 -9 -33 -1 -63
-3 -68 -4 -36 -6 -42 2 -45 58 -2 46 -7 59 -21 61 -21 4 -47 -51 -47 -102 0
-27 -5 -36 -22 -41 -30 -9 -158 -96 -158 -107 0 -5 -13 -22 -29 -38 -37 -37
-59 -107 -62 -195 -3 -76 18 -232 32 -241 17 -10 9 -39 -22 -70 -17 -18 -28
-37 -25 -43 9 -14 49 -14 64 1 15 15 36 -3 52 -45 7 -18 23 -55 37 -84 32 -67
27 -85 -14 -47 -17 16 -48 40 -68 54 -46 31 -115 95 -115 107 0 24 -102 58
-143 47 -37 -9 -65 -59 -61 -110 3 -45 2 -45 -54 -81 -31 -20 -61 -42 -67 -48
-5 -6 -34 -28 -62 -49 -46 -33 -58 -37 -96 -33 -24 3 -60 15 -80 26 -45 25
-84 26 -146 4 -45 -16 -48 -19 -59 -67 -6 -28 -9 -61 -6 -73 7 -24 70 -78 108
-93 15 -5 26 -15 26 -22 0 -9 3 -9 11 -1 7 7 21 8 42 2 44 -13 138 5 204 38
41 21 65 41 89 78 46 69 60 85 72 85 15 0 91 82 92 98 0 17 13 15 41 -6 27
-21 111 -59 291 -132 48 -20 83 -41 93 -56 27 -41 62 -49 111 -22 45 23 54 45
54 131 0 30 4 37 19 37 19 0 68 61 84 104 6 16 14 17 50 12 75 -12 117 -26
117 -41 0 -8 -4 -17 -10 -20 -10 -6 -14 -75 -4 -75 20 0 47 27 60 59 17 43 8
42 169 20 61 -8 88 -8 115 1 32 11 133 58 170 79 79 43 84 42 99 -24 13 -56 6
-83 -36 -135 -6 -8 -17 -36 -24 -61 -11 -40 -10 -51 4 -82 28 -59 93 -85 227
-93 72 -4 789 -4 860 0 136 8 198 33 226 92 16 33 16 38 -2 90 -10 30 -22 54
-26 54 -4 0 -8 8 -8 19 0 10 -7 25 -16 32 -11 9 -14 23 -10 47 7 45 28 92 42
92 6 0 49 -19 95 -43 132 -66 156 -72 246 -58 138 20 153 21 153 8 0 -21 50
-87 65 -87 19 0 20 52 3 80 -7 10 -10 21 -7 24 2 2 37 13 77 24 52 14 74 16
80 8 16 -24 32 -52 38 -66 4 -8 16 -25 26 -36 21 -24 23 -39 13 -106 -4 -25
-4 -71 -1 -100 6 -50 9 -55 50 -76 52 -28 81 -20 116 32 20 28 40 40 100 62
41 15 93 35 115 44 22 10 69 30 105 45 36 15 74 36 86 46 23 22 44 25 44 7 0
-7 16 -29 35 -48 19 -19 35 -38 35 -42 0 -4 8 -8 18 -8 22 0 39 -18 76 -83 16
-28 40 -53 59 -62 18 -9 45 -23 61 -32 48 -26 183 -32 232 -10 47 20 102 61
114 82 14 27 15 52 6 100 -7 38 -12 42 -56 58 -62 22 -108 21 -147 -3 -18 -10
-53 -22 -79 -25 -43 -5 -52 -2 -88 27 -23 18 -42 36 -44 40 -2 4 -10 8 -17 8
-7 0 -15 4 -17 8 -1 5 -28 25 -59 45 l-57 37 6 45 c4 36 0 52 -19 80 -20 29
-30 35 -61 35 -54 0 -116 -27 -131 -58 -6 -15 -41 -48 -77 -74 -63 -46 -78
-59 -146 -120 l-31 -28 5 28 c2 15 24 68 48 118 24 50 44 94 44 99 0 5 8 26
18 47 12 26 21 36 32 31 31 -12 68 -15 75 -4 3 7 -9 27 -29 47 -31 31 -35 40
-31 76 2 22 9 46 16 54 13 16 17 43 25 155 6 83 5 90 -26 157 -18 39 -39 73
-46 76 -8 3 -14 12 -14 20 0 16 -117 98 -157 110 -18 6 -23 15 -23 40 0 49
-27 108 -48 104 -13 -3 -18 -16 -20 -64 l-3 -60 -42 4 c-23 2 -62 4 -87 5
l-45 2 -12 49 c-14 55 -26 72 -43 61 -8 -5 -11 -25 -8 -57 3 -27 1 -51 -3 -54
-5 -2 -38 -8 -73 -13 -100 -11 -110 12 -46 102 22 30 40 59 40 63 0 4 13 19
29 33 15 14 38 45 49 67 12 23 27 44 34 47 7 2 23 24 36 48 13 24 27 51 32 59
8 14 31 66 50 115 4 11 19 50 34 88 14 37 26 77 26 90 0 12 5 38 10 57 8 31
18 39 72 63 35 15 68 27 73 27 6 0 21 18 35 40 14 22 32 40 41 40 8 0 67 -43
130 -96 63 -53 130 -107 149 -119 19 -12 41 -30 49 -39 7 -9 19 -16 26 -16 8
0 26 -11 42 -23 15 -13 51 -37 78 -52 60 -34 116 -73 195 -137 33 -27 62 -48
66 -48 4 0 15 -6 23 -14 9 -8 39 -26 66 -40 28 -14 62 -37 77 -51 15 -14 38
-30 50 -35 13 -6 37 -19 53 -30 17 -11 37 -23 45 -27 8 -4 20 -12 25 -18 9
-11 193 -136 237 -161 11 -6 32 -23 47 -38 15 -14 35 -26 44 -26 16 0 149 -75
187 -105 8 -6 40 -19 70 -27 30 -9 87 -26 127 -38 59 -18 88 -21 155 -17 110
8 236 31 273 51 17 9 35 16 41 16 5 0 39 20 75 45 55 39 68 54 91 108 26 60
36 126 21 141 -4 4 -9 26 -10 49 -2 23 -7 55 -13 71 -5 16 -10 43 -10 61 0
100 -105 321 -192 401 -39 35 -47 39 -92 37 -27 -1 -54 1 -60 4 -5 4 -19 8
-31 9 -29 3 -244 46 -355 71 -19 4 -39 8 -45 9 -5 0 -28 6 -50 12 -22 6 -56
10 -75 8 -34 -2 -202 28 -322 59 -34 9 -110 21 -168 26 -149 13 -189 17 -240
28 -25 5 -97 17 -160 26 -121 16 -228 32 -270 39 -14 3 -72 10 -130 16 -58 6
-116 12 -130 14 -14 1 -33 4 -42 4 -12 1 -18 10 -18 25 0 12 -7 33 -16 45 -9
13 -14 26 -11 29 3 3 39 -1 79 -7 40 -7 80 -13 88 -12 8 0 89 -7 180 -15 91
-8 253 -16 360 -19 107 -3 209 -9 225 -14 17 -5 71 -7 122 -5 71 3 95 0 104
-11 15 -18 33 -18 49 1 9 11 33 15 87 15 41 0 103 7 137 16 77 19 194 63 202
75 3 5 13 9 22 9 9 0 39 27 65 60 48 60 48 61 53 151 8 135 -15 217 -87 321
-11 14 -19 30 -19 35 0 18 -97 82 -150 98 -30 9 -64 21 -75 25 -36 16 -131 31
-166 26 -19 -2 -68 -19 -109 -37 -68 -31 -324 -157 -360 -178 -8 -5 -203 -102
-432 -216 l-417 -207 -55 47 c-60 52 -138 86 -181 78 -19 -4 -26 -2 -23 9 3
15 -98 223 -119 246 -7 8 -18 23 -25 35 -6 12 -27 41 -45 64 l-35 42 65 31
c55 26 102 56 154 100 7 5 16 10 21 10 5 0 19 12 33 26 13 14 49 42 79 61 81
52 149 130 197 224 72 145 77 171 77 374 -1 245 -23 359 -82 424 -18 20 -56
61 -83 93 -52 58 -182 144 -254 168 -42 14 -122 9 -182 -11 -64 -20 -103 -39
-103 -49 0 -6 -9 -10 -20 -10 -23 0 -105 -82 -125 -125 -8 -16 -20 -38 -27
-47 -10 -13 -8 -32 5 -90 15 -63 25 -81 61 -119 75 -75 142 -136 165 -149 64
-34 134 -116 176 -208 17 -37 13 -106 -11 -183 -15 -47 -105 -149 -181 -206
-21 -15 -60 -45 -86 -66 -26 -22 -49 -38 -50 -36 -44 80 -46 88 -24 159 9 30
19 67 22 83 3 15 15 37 26 48 27 27 22 70 -10 85 -15 8 -59 11 -120 9 -96 -4
-96 -4 -108 22 -7 15 -13 31 -13 36 0 14 -53 116 -84 162 -24 35 -61 70 -176
167 -13 11 -36 25 -50 32 -14 6 -31 16 -37 22 -7 7 -70 31 -140 54 -121 40
-136 42 -268 46 -135 4 -277 -8 -299 -24 -6 -5 -38 -17 -71 -26 -81 -25 -135
-47 -135 -56 0 -5 -12 -11 -27 -15 -15 -3 -37 -16 -49 -28 -11 -12 -49 -44
-84 -72 -34 -27 -77 -72 -95 -100 -40 -59 -91 -160 -100 -198 l-7 -26 -101 4
c-118 4 -147 -6 -147 -55 0 -16 7 -33 15 -37 8 -5 27 -47 42 -95 30 -91 29
-124 -4 -174 l-15 -24 -47 38 c-25 21 -63 50 -84 65 -20 16 -66 58 -102 94
-70 73 -90 114 -100 218 -6 52 -4 64 17 95 12 19 29 47 36 61 19 36 93 108
133 129 23 13 90 73 164 149 34 34 47 57 59 107 21 82 20 97 -4 119 -11 10
-20 25 -20 34 0 23 -97 121 -120 121 -10 0 -23 6 -27 13 -11 17 -49 37 -71 37
-10 0 -23 5 -29 11 -5 5 -46 12 -89 15 -63 3 -86 1 -114 -14z m1462 -439 c10
-21 11 -41 5 -75 -8 -40 -13 -48 -31 -48 -12 0 -27 -5 -34 -12 -6 -6 -47 -13
-92 -15 -79 -4 -81 -4 -111 26 -22 23 -29 36 -23 49 4 9 8 26 8 37 1 26 42 44
105 48 28 2 54 6 58 10 3 4 28 7 54 7 42 0 49 -3 61 -27z m-1428 -9 c17 -16
21 -61 8 -80 -4 -6 -24 -14 -44 -18 -31 -6 -39 -3 -47 13 -18 32 -13 67 12 84
29 21 52 21 71 1z m3160 -256 c-3 -72 -14 -131 -25 -142 -5 -6 -23 6 -45 29
-31 33 -35 43 -30 73 6 43 53 88 92 91 7 1 10 -18 8 -51z m-3187 -180 c-3 -7
-5 -2 -5 12 0 14 2 19 5 13 2 -7 2 -19 0 -25z m1848 -78 c4 -6 15 -6 31 0 27
11 114 -5 114 -21 0 -4 -13 -17 -29 -28 -43 -31 -136 -32 -184 -2 -20 12 -37
24 -37 26 0 2 -3 10 -6 19 -5 13 3 16 49 16 31 0 58 -4 62 -10z m349 -20 c5
-6 5 -22 -1 -42 -8 -29 -13 -33 -41 -32 -58 3 -91 77 -38 87 26 6 68 -1 80
-13z m-1404 -279 c25 -47 -38 -141 -95 -141 -29 0 -85 45 -85 69 0 21 45 66
80 80 43 17 88 13 100 -8z m190 -59 c0 -35 -16 -47 -44 -34 -30 13 -33 33 -10
56 19 19 54 5 54 -22z m-2442 -132 c45 -22 87 -40 92 -40 6 0 11 -6 12 -12 0
-7 2 -17 3 -23 2 -19 45 -100 71 -135 l25 -35 -51 -7 c-29 -3 -119 -9 -200
-13 -171 -8 -193 -2 -188 48 3 29 0 33 -37 45 -22 7 -46 19 -54 27 -12 12 -20
7 -52 -28 -22 -22 -38 -48 -36 -57 2 -12 -12 -15 -75 -16 -43 -1 -78 1 -78 5
0 4 7 16 15 27 8 10 15 27 15 37 0 9 4 17 8 17 4 0 13 15 20 33 26 69 112 132
196 144 23 3 48 9 56 14 8 5 51 9 95 9 73 0 87 -3 163 -40z m5993 -4 c20 -7
43 -12 52 -10 38 5 111 -27 153 -68 24 -24 44 -48 44 -55 0 -7 4 -13 9 -13 10
0 55 -105 49 -116 -1 -4 -77 -8 -168 -11 -90 -2 -168 -7 -173 -12 -9 -9 -187
-5 -214 4 -7 3 -13 13 -13 23 0 11 -20 36 -45 56 -41 34 -45 41 -45 81 l0 44
63 30 c34 17 74 33 90 37 15 3 27 10 27 15 0 14 130 10 171 -5z m-5739 -128
c15 -10 48 -25 73 -32 25 -8 57 -22 72 -31 14 -9 53 -31 87 -49 33 -18 70 -37
81 -44 11 -6 40 -20 65 -31 48 -21 102 -52 110 -63 3 -3 19 -10 35 -14 17 -4
43 -17 58 -30 15 -13 45 -28 66 -34 21 -5 54 -20 72 -33 19 -13 60 -34 92 -47
32 -13 63 -30 69 -37 13 -16 9 -16 -80 -3 -37 5 -103 14 -146 21 -44 6 -89 15
-100 19 -12 5 -61 20 -111 35 -172 51 -384 174 -385 223 0 14 -8 26 -21 30
-20 8 -24 14 -66 90 -37 67 -32 72 29 30z m5288 -17 c0 -20 -76 -121 -91 -121
-18 0 -35 -33 -25 -49 3 -5 -5 -16 -19 -25 -30 -20 -36 -20 -29 -2 3 8 1 17
-5 21 -7 4 -11 -5 -11 -22 0 -35 -26 -59 -115 -110 -106 -59 -100 -60 -98 11
1 33 -3 71 -9 83 -6 13 -9 24 -7 26 28 23 134 78 157 83 17 4 39 15 48 25 9
11 25 19 35 19 10 0 21 5 24 11 4 5 14 9 23 7 10 -2 35 9 57 24 41 28 65 35
65 19z m77 -76 c-2 -49 -4 -55 -24 -55 -51 0 -54 9 -20 60 18 27 35 49 39 49
3 1 5 -24 5 -54z m-2679 -70 c12 -15 22 -35 22 -45 0 -31 -19 -70 -34 -70 -7
0 -20 -10 -28 -22 -14 -21 -17 -21 -53 -7 -21 7 -43 23 -49 34 -6 11 -16 24
-22 30 -7 6 -9 26 -7 48 7 48 39 67 103 62 33 -3 51 -12 68 -30z m-3362 -18
c4 -3 8 -17 9 -30 2 -14 8 -33 13 -44 6 -11 8 -30 5 -41 -8 -31 56 -107 102
-122 19 -6 39 -19 44 -28 9 -15 10 -15 16 3 4 11 11 28 16 38 7 12 5 24 -6 40
-23 33 -18 61 16 86 28 21 29 24 15 40 -9 10 -16 28 -16 41 l0 23 113 -7 c61
-4 147 -7 191 -6 71 1 78 -1 72 -17 -12 -30 -26 -162 -19 -179 4 -11 -5 -26
-27 -45 -18 -16 -35 -29 -39 -29 -3 0 -27 -20 -53 -44 -34 -31 -59 -45 -89
-50 -45 -7 -188 2 -204 14 -5 4 -39 15 -75 25 -35 9 -80 26 -99 36 -20 10 -40
19 -46 19 -6 0 -22 18 -35 40 -14 22 -28 40 -32 40 -5 0 -8 6 -8 14 0 8 -6 16
-12 19 -12 4 -14 35 -9 150 l1 27 75 -3 c41 -2 78 -6 81 -10z m679 3 c3 -5 1
-10 -4 -10 -6 0 -11 5 -11 10 0 6 2 10 4 10 3 0 8 -4 11 -10z m5345 -37 c2 -2
0 -7 -6 -11 -6 -4 -11 -29 -10 -55 1 -27 -1 -50 -6 -53 -15 -9 -8 -31 17 -58
21 -23 34 -56 21 -56 -13 0 -63 33 -96 64 -22 20 -46 36 -54 36 -8 0 -25 14
-37 31 l-22 32 47 44 c46 42 49 44 94 37 26 -4 49 -8 52 -11z m721 -11 c5
-103 -8 -166 -38 -185 -7 -4 -13 -12 -13 -18 0 -29 -96 -86 -200 -117 -87 -27
-261 -44 -277 -28 -4 4 -7 25 -7 47 1 30 9 46 31 68 17 16 36 30 44 33 10 3 7
13 -14 37 -23 28 -26 38 -21 72 4 21 2 45 -4 51 -5 7 -13 23 -16 35 -7 21 -4
22 56 25 35 2 152 4 261 5 l197 2 1 -27z m-6000 -8 l26 -25 -25 -29 c-20 -23
-29 -27 -39 -18 -24 19 -34 47 -27 73 8 32 31 32 65 -1z m1758 2 c18 -22 10
-70 -12 -74 -25 -5 -57 26 -57 54 0 33 47 47 69 20z m1606 -62 c0 -35 -3 -39
-28 -42 -54 -6 -75 40 -37 78 15 15 25 17 42 11 19 -7 23 -16 23 -47z m1319
-11 c-3 -21 -12 -50 -20 -65 -8 -15 -14 -33 -14 -41 0 -12 -18 -20 -75 -33 -5
-1 -12 -3 -15 -4 -3 -1 -63 -10 -135 -20 -125 -18 -181 -13 -122 9 33 13 98
44 157 76 25 13 53 25 63 25 9 0 17 5 17 10 0 6 9 10 19 10 10 0 21 6 24 14 3
8 23 19 44 26 21 7 42 16 48 21 14 14 15 11 9 -28z m-4561 -15 c37 -27 66 -45
87 -54 8 -3 24 -10 35 -14 22 -9 191 -62 240 -75 53 -14 59 -15 113 -22 55 -6
71 -20 25 -21 -16 0 -122 -7 -238 -16 -326 -26 -339 -25 -369 3 -14 14 -26 36
-26 49 0 14 -10 33 -22 44 -27 23 -18 45 31 70 18 9 40 26 48 37 18 27 37 26
76 -1z m4924 -30 c10 -13 31 -29 46 -37 15 -8 45 -30 67 -48 21 -18 41 -33 45
-33 3 0 12 -6 19 -12 8 -7 25 -23 39 -35 17 -15 25 -29 21 -40 -5 -15 -4 -15
5 -3 8 11 13 12 22 3 9 -9 1 -14 -32 -21 -24 -5 -51 -5 -59 -1 -9 4 -47 9 -85
10 -83 3 -95 6 -95 26 0 11 -6 10 -26 -6 -22 -17 -41 -21 -105 -21 l-79 0 6
61 c7 75 19 109 38 109 16 0 105 45 121 61 15 15 32 11 52 -13z m-419 -160
c-18 -33 -29 -38 -63 -32 -16 3 -50 9 -75 13 l-45 7 55 9 c30 4 65 9 77 9 12
1 25 4 29 9 4 4 13 7 21 7 11 0 11 -4 1 -22z m-3936 -193 c2 1 29 6 61 9 55 7
57 7 57 -16 0 -19 -9 -28 -42 -42 -24 -9 -61 -26 -83 -37 -22 -12 -52 -22 -67
-22 -16 -1 -28 -4 -28 -7 0 -9 -88 -32 -98 -26 -5 3 -15 0 -21 -8 -6 -7 -34
-16 -61 -20 -27 -4 -52 -11 -56 -17 -3 -6 -12 -8 -20 -5 -7 3 -16 1 -19 -5 -4
-5 -11 -7 -16 -3 -5 3 -20 -1 -32 -8 -30 -19 -94 -37 -151 -42 -25 -3 -58 -13
-74 -24 -15 -10 -47 -24 -72 -31 -25 -7 -56 -19 -70 -26 -42 -21 -77 -26 -87
-12 -16 19 -32 76 -24 79 5 2 11 12 15 23 4 15 -3 30 -27 55 -63 66 -58 75 43
86 93 9 113 12 179 24 36 6 108 13 160 16 108 4 154 9 191 17 24 6 57 10 187
24 35 3 68 11 73 18 7 9 21 10 45 5 19 -4 35 -7 37 -5z m3728 -11 c25 -3 63
-7 85 -9 54 -6 90 -10 220 -30 61 -9 148 -19 195 -21 47 -3 101 -9 120 -14 19
-5 54 -7 78 -5 32 3 42 1 42 -10 0 -8 -4 -15 -9 -15 -10 0 -9 -14 3 -42 4 -9
3 -33 -4 -53 -9 -28 -9 -40 2 -63 14 -26 13 -28 -9 -30 -13 -1 -23 3 -23 10 0
6 -3 8 -7 5 -3 -4 -12 -2 -19 4 -7 6 -39 13 -71 15 -32 3 -68 12 -81 20 -12 8
-27 12 -32 9 -6 -4 -17 1 -26 9 -8 9 -26 17 -40 17 -26 2 -32 3 -54 12 -8 3
-35 11 -60 17 -25 7 -50 16 -57 22 -7 5 -17 7 -22 4 -6 -4 -25 0 -43 7 -18 8
-37 15 -43 16 -44 8 -93 25 -107 38 -10 9 -18 13 -18 8 0 -4 -6 -3 -12 3 -7 6
-15 10 -18 10 -3 1 -17 5 -32 11 -16 6 -39 15 -53 21 -16 6 -25 17 -25 31 0
18 4 20 38 15 20 -4 57 -9 82 -12z m-2465 -108 c11 -1 25 -8 32 -17 15 -20 8
-83 -12 -112 -8 -12 -16 -31 -16 -42 -1 -17 -2 -17 -6 -2 -5 17 -39 23 -59 9
-6 -4 -10 -20 -10 -37 1 -20 -4 -31 -16 -33 -22 -4 -45 45 -28 62 5 5 10 21
10 34 0 20 -4 23 -27 20 -18 -2 -32 -12 -38 -26 -11 -25 -32 -24 -27 2 2 9 -2
16 -8 16 -5 0 -9 16 -7 36 4 60 87 109 162 96 17 -3 39 -6 50 -6z m-2235 -15
c0 -4 -16 -28 -35 -52 -34 -43 -35 -45 -31 -126 l3 -81 -51 -7 c-28 -4 -72
-13 -98 -20 -25 -7 -49 -11 -52 -8 -3 3 -18 7 -33 9 -25 3 -154 31 -178 38
-66 20 -185 95 -185 116 0 4 18 6 40 3 24 -3 40 -2 40 4 0 14 56 37 70 28 6
-3 32 0 58 9 43 14 161 32 189 29 7 0 10 3 7 8 -3 5 7 10 23 10 35 2 27 0 136
25 4 1 8 2 10 3 1 1 17 4 36 7 19 2 37 6 39 9 8 7 12 6 12 -4z m5754 -12 c31
-8 55 -22 69 -40 18 -25 22 -26 41 -15 40 24 136 4 136 -29 0 -18 23 -19 52
-4 57 31 281 -2 294 -43 7 -24 -5 -39 -74 -84 -64 -43 -217 -87 -268 -78 -18
3 -35 1 -38 -5 -5 -8 -18 -6 -43 4 -19 8 -50 15 -68 15 -17 0 -35 3 -38 6 -4
4 -23 8 -44 10 -69 5 -123 16 -129 25 -3 5 -14 9 -25 9 -11 0 -29 5 -41 11
-20 11 -20 11 2 26 18 13 20 21 14 61 -3 26 -12 52 -19 57 -25 20 -27 53 -5
75 19 19 30 21 78 17 32 -3 79 -11 106 -18z m-2291 -19 c14 -11 30 -20 36 -20
13 0 31 -42 31 -71 0 -14 -7 -19 -29 -19 -20 0 -30 -6 -34 -20 -8 -33 -33 -23
-66 27 -35 52 -39 89 -13 109 24 19 45 17 75 -6z m-2558 -35 c-16 -13 -45 -32
-64 -42 -19 -10 -42 -25 -52 -34 -9 -10 -30 -20 -47 -23 -16 -4 -39 -16 -50
-26 -12 -11 -26 -20 -32 -20 -5 0 -10 -4 -10 -9 0 -10 -69 -56 -83 -56 -5 0
-16 -9 -25 -21 -9 -12 -31 -29 -49 -39 -17 -10 -34 -28 -37 -40 -4 -15 -34
-36 -98 -69 -51 -27 -101 -55 -110 -63 -17 -15 -58 -10 -58 7 0 5 -10 19 -22
30 -13 12 -24 29 -26 38 -1 9 -5 34 -8 54 -5 30 -1 47 20 82 21 37 36 48 81
65 31 12 63 21 73 21 9 0 37 7 62 16 25 9 74 20 110 25 36 4 79 15 95 23 17 8
41 16 55 18 14 2 31 7 38 11 6 5 16 6 21 3 4 -3 17 1 27 9 10 8 31 15 46 15
15 0 30 5 33 11 4 6 12 8 19 6 6 -3 27 3 46 13 19 10 44 18 55 19 17 0 16 -3
-10 -24z m3920 -6 c6 -4 44 -15 85 -25 41 -10 77 -21 80 -24 3 -3 32 -12 65
-19 33 -7 73 -20 90 -29 16 -8 50 -16 75 -18 52 -4 131 -23 144 -35 6 -5 20
-9 31 -9 32 0 37 -10 20 -37 -9 -13 -12 -29 -8 -36 11 -18 4 -50 -23 -106 -21
-45 -44 -67 -44 -42 0 5 -11 12 -25 15 -13 3 -41 24 -62 45 -21 21 -50 46 -65
56 -16 9 -28 24 -28 31 0 8 -7 14 -15 14 -19 0 -50 17 -95 53 -59 46 -93 67
-113 67 -8 0 -22 9 -32 20 -10 11 -23 20 -29 20 -13 0 -106 63 -106 72 0 7 41
-2 55 -13z m-5310 -9 c3 -5 -1 -10 -10 -10 -9 0 -13 5 -10 10 3 6 8 10 10 10
2 0 7 -4 10 -10z m-63 -202 c68 -33 84 -39 94 -38 16 3 54 -12 54 -21 0 -5 -9
-14 -20 -21 -11 -7 -20 -21 -20 -30 0 -18 -50 -97 -74 -117 -8 -6 -35 -13 -60
-14 -25 -2 -49 -6 -52 -10 -14 -14 -61 -7 -81 13 -12 10 -24 33 -28 50 -4 17
-13 43 -21 58 -20 39 -17 55 15 86 l29 28 -33 29 c-43 38 -53 86 -23 108 46
33 51 31 120 -38 36 -37 81 -74 100 -83z m7058 117 c25 -4 51 -12 58 -17 7 -6
28 -8 47 -5 19 3 37 1 41 -4 3 -6 12 -8 20 -5 21 8 94 -54 120 -103 12 -24 33
-54 45 -67 12 -13 19 -24 14 -24 -5 0 -4 -5 3 -12 7 -7 12 -20 12 -30 0 -10 4
-18 8 -18 8 0 31 -106 37 -167 2 -17 6 -36 10 -42 7 -13 -7 -15 -20 -2 -11 9
-110 42 -140 46 -11 1 -20 3 -20 4 0 6 -119 25 -215 35 -37 4 -37 4 -35 29 1
13 8 22 17 21 18 -2 13 31 -7 56 -18 22 -25 96 -13 128 16 41 2 79 -43 124
-21 21 -39 43 -39 48 0 14 34 29 45 20 5 -4 30 -11 55 -15z m-7325 5 c4 -6 -7
-10 -24 -10 -17 0 -31 -5 -31 -11 0 -6 -6 -17 -14 -24 -7 -8 -17 -31 -21 -52
-4 -21 -14 -46 -22 -55 -10 -11 -13 -23 -7 -35 4 -10 9 -36 9 -58 3 -71 18
-140 34 -152 13 -10 6 -12 -40 -13 -31 0 -70 -7 -85 -15 -16 -8 -40 -15 -54
-15 -15 0 -31 -5 -37 -11 -6 -6 -26 -14 -44 -19 -19 -4 -43 -11 -54 -16 -19
-8 -19 -7 -2 19 9 14 17 32 16 39 0 7 -4 4 -9 -7 -8 -19 -9 -19 -9 3 -1 13 3
31 8 40 5 10 11 37 14 62 3 25 12 59 21 75 9 17 16 35 16 41 0 6 7 17 16 25 8
7 26 34 39 59 13 26 44 63 69 84 40 32 53 37 98 38 28 0 61 4 72 8 28 12 34
12 41 0z m7125 -144 c0 -18 7 -50 15 -69 23 -56 19 -82 -17 -111 -18 -14 -40
-33 -50 -42 -21 -20 -49 -4 -72 40 -32 59 -43 77 -65 100 -11 12 -21 25 -21
29 0 9 59 39 68 33 4 -2 34 9 67 24 33 16 63 29 68 29 4 1 7 -14 7 -33z m-632
-3 c9 -3 28 -7 42 -8 42 -3 58 -15 53 -36 -6 -20 11 -26 22 -8 5 7 29 8 69 4
33 -4 87 -7 119 -7 40 0 57 -4 57 -13 0 -7 -6 -15 -14 -18 -7 -3 -16 -16 -19
-28 -6 -21 -4 -21 17 5 l23 29 22 -22 c12 -12 26 -32 32 -44 26 -56 44 -85 77
-119 31 -33 36 -46 40 -96 5 -70 -10 -106 -40 -99 -11 3 -35 -3 -54 -14 -19
-10 -43 -19 -54 -19 -16 0 -20 -7 -20 -34 0 -40 -11 -50 -45 -42 -33 8 -69 50
-110 129 -31 58 -34 70 -24 90 11 20 11 21 -5 7 -16 -13 -20 -12 -32 5 -8 10
-14 26 -14 36 0 9 -7 22 -15 29 -8 7 -15 19 -15 27 0 7 -7 16 -15 19 -8 4 -15
10 -15 15 0 4 -12 21 -26 36 -15 15 -33 44 -41 63 -9 19 -28 54 -43 77 -36 53
-32 59 28 36z m-97 -40 c13 -21 33 -56 45 -78 12 -22 33 -60 48 -85 14 -25 29
-51 32 -58 7 -15 -49 -72 -70 -72 -7 0 -25 11 -40 25 -15 14 -32 25 -37 25
-15 0 -79 51 -79 62 0 5 17 34 37 65 30 46 36 63 35 104 0 27 1 49 3 49 1 0
13 -17 26 -37z m-5635 -39 c13 -17 24 -40 24 -52 0 -25 -20 -72 -31 -72 -9 0
-28 -33 -60 -102 -12 -27 -25 -48 -29 -48 -10 0 -55 -79 -64 -111 -3 -13 -14
-33 -24 -44 -19 -23 -97 -75 -111 -75 -5 0 -11 -7 -15 -15 -11 -29 -44 -17
-57 20 -9 23 -19 35 -31 35 -10 0 -21 7 -24 15 -4 8 -13 15 -21 15 -27 0 -61
47 -72 99 l-11 50 75 78 c42 43 78 88 81 101 3 12 10 22 15 22 5 0 15 12 22
27 6 15 22 37 35 50 12 12 22 26 22 31 0 14 39 22 63 13 12 -4 37 -4 57 1 19
5 53 11 74 13 21 3 42 7 45 11 3 3 8 -2 10 -12 2 -10 14 -32 27 -50z m104
-225 c0 -5 -16 -25 -35 -44 -52 -53 -143 -103 -103 -57 9 9 19 27 23 40 3 12
17 35 30 51 14 15 29 41 35 56 l11 29 19 -32 c11 -18 20 -37 20 -43z m3391 10
c9 -12 14 -31 11 -43 -6 -27 -41 -66 -59 -66 -7 0 -13 -5 -13 -11 0 -18 -66
-4 -90 19 -30 28 -37 83 -13 104 38 34 137 33 164 -3z m-4031 1 c0 -5 -9 -10
-20 -10 -11 0 -20 5 -20 10 0 6 9 10 20 10 11 0 20 -4 20 -10z m7175 -55 c61
-7 79 -10 90 -17 6 -3 25 -6 43 -6 18 0 39 -5 45 -10 7 -5 35 -15 62 -21 85
-21 123 -42 127 -74 8 -50 -15 -97 -79 -163 -65 -66 -116 -90 -210 -99 -21 -2
-55 -6 -76 -9 -28 -4 -37 -2 -34 7 2 7 13 11 24 9 14 -2 29 12 52 49 33 49 33
52 20 92 -7 23 -13 45 -13 49 -1 3 -13 18 -29 32 -31 29 -86 37 -111 17 -9 -8
-20 -11 -24 -7 -10 11 -4 108 8 120 5 5 10 19 10 29 0 16 5 18 28 13 15 -4 45
-9 67 -11z m-4513 -12 c19 -17 24 -83 11 -132 -5 -21 -10 -23 -53 -19 -26 3
-59 13 -73 24 -47 35 -42 71 16 114 46 34 72 37 99 13z m-3117 -12 c-3 -5 -1
-12 5 -16 5 -3 10 -18 10 -33 0 -17 12 -38 33 -58 44 -42 59 -46 93 -23 16 10
36 19 45 19 9 0 22 7 29 15 7 9 15 13 18 10 3 -2 -6 -13 -19 -24 -20 -16 -22
-22 -12 -42 20 -42 21 -67 6 -111 -8 -24 -13 -55 -11 -70 l4 -27 -55 5 c-76 6
-149 23 -190 42 -41 20 -141 129 -141 153 0 10 -4 21 -10 24 -18 11 6 88 28
91 4 0 20 6 35 12 16 7 36 12 46 12 9 0 21 4 27 9 5 5 20 11 34 14 14 2 26 5
28 6 2 0 1 -3 -3 -8z m3193 -63 c7 -7 12 -25 12 -40 0 -21 -5 -28 -20 -28 -28
0 -48 44 -30 65 15 18 22 19 38 3z m3682 -18 c0 -5 -2 -10 -4 -10 -3 0 -8 5
-11 10 -3 6 -1 10 4 10 6 0 11 -4 11 -10z m573 -127 c-27 -38 -37 -82 -22 -99
9 -11 9 -18 1 -26 -7 -7 -12 -8 -12 -4 0 5 -6 3 -14 -3 -9 -7 -23 -8 -42 -2
-16 5 -41 12 -56 15 -16 4 -28 11 -28 17 0 6 4 8 9 4 5 -3 12 -1 15 4 3 5 15
7 25 4 24 -6 56 38 48 66 -5 20 10 31 43 31 9 0 23 7 30 15 22 26 23 8 3 -22z
m-6949 2 c2 -7 19 -16 37 -20 19 -4 33 -15 37 -27 3 -12 10 -17 21 -13 9 3 5
-4 -9 -15 -14 -11 -35 -20 -47 -20 -12 0 -24 -4 -28 -10 -3 -5 -12 -7 -20 -4
-8 4 -18 -1 -21 -10 -3 -8 -16 -15 -27 -15 -12 1 -42 -6 -66 -15 -45 -17 -107
-21 -114 -8 -9 15 19 97 32 94 7 -1 19 2 26 8 9 8 15 8 20 0 15 -24 55 -9 91
34 35 43 57 49 68 21z m2321 -45 c3 -5 1 -10 -4 -10 -6 0 -11 5 -11 10 0 6 2
10 4 10 3 0 8 -4 11 -10z m445 -35 c50 -26 31 -75 -29 -75 -21 0 -61 32 -61
49 0 15 30 41 46 41 8 0 28 -7 44 -15z m-756 -416 c14 -17 26 -38 26 -48 0
-30 -37 -51 -89 -51 -53 0 -63 10 -58 60 9 74 74 95 121 39z m1294 -153 c5
-41 -11 -53 -42 -32 -43 28 -31 68 19 63 14 -1 21 -11 23 -31z m100 -44 c2
-12 10 -22 18 -22 8 0 23 -9 34 -20 11 -11 29 -20 39 -20 11 0 29 -15 42 -36
19 -31 21 -45 16 -101 -7 -73 -18 -93 -47 -86 -14 4 -20 0 -20 -11 0 -25 -60
-20 -98 8 -79 58 -96 96 -67 146 8 14 18 32 22 40 4 8 17 24 30 36 l23 21 -25
11 c-27 13 -32 31 -13 50 18 18 43 10 46 -16z m1444 -149 c2 -10 1 -35 -1 -56
l-3 -40 -24 47 c-29 56 -28 53 -6 59 29 8 30 7 34 -10z m-2901 -3 c18 -10 18
-12 -8 -60 -18 -33 -29 -46 -35 -38 -4 7 -5 22 -2 34 3 12 -1 26 -10 33 -39
32 6 57 55 31z m1182 -170 c19 -38 5 -105 -20 -96 -8 3 -22 6 -31 7 -9 0 -27
13 -39 28 -20 25 -21 32 -10 60 10 27 16 31 48 31 32 0 40 -5 52 -30z m-2228
-46 c20 -15 20 -15 1 -30 -23 -17 -33 -18 -41 -4 -7 12 3 50 13 50 4 0 16 -8
27 -16z m5080 -46 c27 -12 33 -39 12 -56 -7 -6 -32 -15 -54 -20 -35 -8 -45 -7
-58 7 -8 10 -15 23 -15 29 0 7 -5 12 -10 12 -6 0 -5 6 2 14 7 8 16 12 20 9 5
-2 16 1 25 6 24 14 47 13 78 -1z m-175 -42 c-6 -8 -18 -12 -27 -9 -12 5 -12 7
-1 14 7 5 19 9 27 9 11 0 11 -3 1 -14z"/>
<path d="M1305 3299 c-4 -6 -5 -12 -2 -15 2 -3 7 2 10 11 7 17 1 20 -8 4z"/>
<path d="M1701 3164 c0 -11 3 -14 6 -6 3 7 2 16 -1 19 -3 4 -6 -2 -5 -13z"/>
<path d="M7460 3324 c0 -12 7 -25 16 -28 25 -10 27 -1 5 25 -20 24 -20 24 -21
3z"/>
<path d="M1945 3160 c-3 -5 -1 -10 4 -10 6 0 11 5 11 10 0 6 -2 10 -4 10 -3 0
-8 -4 -11 -10z"/>
<path d="M2120 3080 c20 -13 43 -13 35 0 -3 6 -16 10 -28 10 -18 0 -19 -2 -7
-10z"/>
<path d="M2140 2990 c0 -5 5 -10 11 -10 5 0 7 5 4 10 -3 6 -8 10 -11 10 -2 0
-4 -4 -4 -10z"/>
<path d="M7040 3126 c0 -8 4 -17 9 -20 5 -4 7 3 4 14 -6 23 -13 26 -13 6z"/>
<path d="M1610 3032 c6 -13 14 -21 18 -18 3 4 -2 14 -12 24 -18 16 -18 16 -6
-6z"/>
<path d="M1555 2830 c-3 -5 -1 -10 4 -10 6 0 11 5 11 10 0 6 -2 10 -4 10 -3 0
-8 -4 -11 -10z"/>
<path d="M1540 2801 c0 -8 48 -21 74 -21 12 1 -51 30 -65 30 -5 0 -9 -4 -9 -9z"/>
<path d="M1410 2754 c0 -8 5 -12 10 -9 6 3 10 10 10 16 0 5 -4 9 -10 9 -5 0
-10 -7 -10 -16z"/>
<path d="M7667 2920 c-3 -11 -1 -23 4 -26 5 -3 9 6 9 20 0 31 -6 34 -13 6z"/>
<path d="M7634 2695 c-10 -8 -14 -15 -8 -15 6 0 17 7 24 15 16 19 9 19 -16 0z"/>
<path d="M2180 2840 c0 -5 5 -10 11 -10 5 0 7 5 4 10 -3 6 -8 10 -11 10 -2 0
-4 -4 -4 -10z"/>
<path d="M2206 2755 c4 -8 10 -12 15 -9 14 8 10 24 -6 24 -9 0 -12 -6 -9 -15z"/>
<path d="M6990 2883 c0 -3 7 -14 16 -24 12 -14 13 -22 4 -39 -13 -25 -6 -54
12 -48 17 6 19 88 3 105 -14 14 -35 18 -35 6z"/>
<path d="M1150 2080 c0 -5 5 -10 11 -10 5 0 7 5 4 10 -3 6 -8 10 -11 10 -2 0
-4 -4 -4 -10z"/>
<path d="M8405 2108 c3 -13 9 -33 12 -45 6 -25 18 -30 28 -12 4 6 -2 20 -13
32 -11 12 -17 28 -15 35 3 6 -1 12 -7 12 -8 0 -10 -8 -5 -22z"/>
<path d="M7630 1890 c-8 -5 -12 -12 -9 -15 4 -3 12 1 19 10 14 17 11 19 -10 5z"/>
<path d="M1542 1992 c-36 -34 -34 -72 7 -101 32 -22 55 -16 81 24 28 43 26 79
-5 93 -38 17 -50 15 -83 -16z"/>
<path d="M1363 1853 c9 -2 23 -2 30 0 6 3 -1 5 -18 5 -16 0 -22 -2 -12 -5z"/>
</g>
</svg>
